<svg width="21" height="21" viewBox="0 0 21 21" fill="none" xmlns="http://www.w3.org/2000/svg">
    <path d="M4.17614 0C4.33436 0 4.48611 0.0628549 4.59799 0.174737C4.70987 0.28662 4.77273 0.438365 4.77273 0.596591V1.19318H14.3182V0.596591C14.3182 0.438365 14.381 0.28662 14.4929 0.174737C14.6048 0.0628549 14.7565 0 14.9148 0C15.073 0 15.2247 0.0628549 15.3366 0.174737C15.4485 0.28662 15.5114 0.438365 15.5114 0.596591V1.19318H16.7045C17.3375 1.19318 17.9444 1.4446 18.392 1.89213C18.8395 2.33966 19.0909 2.94664 19.0909 3.57955V16.7045C19.0909 17.3375 18.8395 17.9444 18.392 18.392C17.9444 18.8395 17.3375 19.0909 16.7045 19.0909H2.38636C1.75346 19.0909 1.14648 18.8395 0.69895 18.392C0.25142 17.9444 0 17.3375 0 16.7045V5.96591H19.0909V4.77273H0V3.57955C0 2.94664 0.25142 2.33966 0.69895 1.89213C1.14648 1.4446 1.75346 1.19318 2.38636 1.19318H3.57955V0.596591C3.57955 0.438365 3.6424 0.28662 3.75428 0.174737C3.86617 0.0628549 4.01791 0 4.17614 0Z" fill="#2B447C"/>
    <circle cx="15.75" cy="15.75" r="4.75" fill="#2B447C" stroke="white"/>
    <path fill-rule="evenodd" clip-rule="evenodd" d="M13.3835 12.8513C13.4512 12.7837 13.5326 12.7312 13.6221 12.6974C13.7116 12.6636 13.8073 12.6492 13.9028 12.6552C13.9983 12.6611 14.0914 12.6873 14.1761 12.732C14.2607 12.7767 14.3348 12.8389 14.3936 12.9144L15.0883 13.8069C15.2156 13.9706 15.2605 14.1839 15.2102 14.3851L14.9985 15.2327C14.9876 15.2766 14.9882 15.3226 15.0002 15.3662C15.0123 15.4098 15.0354 15.4496 15.0674 15.4816L16.0183 16.4325C16.0503 16.4646 16.0901 16.4878 16.1338 16.4998C16.1775 16.5119 16.2236 16.5125 16.2675 16.5014L17.1147 16.2897C17.214 16.2649 17.3176 16.263 17.4178 16.2841C17.518 16.3052 17.612 16.3488 17.6929 16.4116L18.5853 17.106C18.9061 17.3556 18.9355 17.8297 18.6484 18.1165L18.2482 18.5167C17.9618 18.8031 17.5338 18.9289 17.1348 18.7884C16.1135 18.4291 15.1863 17.8444 14.4219 17.0777C13.6553 16.3133 13.0707 15.3862 12.7113 14.365C12.5712 13.9663 12.697 13.5379 12.9834 13.2515L13.3835 12.8513Z" fill="white"/>
</svg>
