<svg width="20" height="21" viewBox="0 0 20 21" fill="none" xmlns="http://www.w3.org/2000/svg">
    <path d="M10.7922 0.441166C10.1701 -0.147055 9.19683 -0.147055 8.57467 0.441166L0.757697 7.83179C0.274041 8.28908 0 8.92531 0 9.5909V18.5791C0 19.9161 1.08385 21 2.42086 21H4.84172C6.17873 21 7.26258 19.9161 7.26258 18.5791V14.5444C7.26258 14.0988 7.62387 13.7375 8.06954 13.7375H11.2973C11.743 13.7375 12.1043 14.0988 12.1043 14.5444V18.5791C12.1043 19.9161 13.1882 21 14.5252 21H16.946C18.283 21 19.3669 19.9161 19.3669 18.5791V9.5909C19.3669 8.92531 19.0928 8.28908 18.6092 7.83179L10.7922 0.441166Z" fill="#2B447C"/>
</svg>
