<svg width="6" height="8" viewBox="0 0 6 8" fill="none" xmlns="http://www.w3.org/2000/svg">
<path d="M3.02767 6.0339C3.01832 6.04445 3.00909 6.05483 3 6.06503C2.9909 6.05483 2.98168 6.04445 2.97233 6.0339C2.73825 5.76991 2.42716 5.40081 2.11723 4.97896C1.80617 4.55557 1.50341 4.08867 1.28021 3.62862C1.05361 3.16158 0.928571 2.74108 0.928571 2.4C0.928571 1.38407 1.82452 0.5 3 0.5C4.17548 0.5 5.07143 1.38407 5.07143 2.4C5.07143 2.74108 4.94639 3.16158 4.71979 3.62862C4.49659 4.08867 4.19383 4.55557 3.88277 4.97896C3.57284 5.40081 3.26175 5.76991 3.02767 6.0339ZM3 1.1C2.28548 1.1 1.64286 1.65193 1.64286 2.4C1.64286 3.14807 2.28548 3.7 3 3.7C3.72048 3.7 4.35714 3.1465 4.35714 2.4C4.35714 1.65193 3.71452 1.1 3 1.1Z" fill="#2B447C" stroke="#2B447C"/>
</svg>
