<svg width="25" height="25" viewBox="0 0 25 25" fill="none" xmlns="http://www.w3.org/2000/svg">
<rect width="25" height="25" rx="5" fill="#4285F4"/>
<mask id="path-2-inside-1_136_528" fill="white">
<path d="M6.92099 17.7911L10.8986 17.8232C13.0955 17.8409 14.8906 16.0746 14.9084 13.8777L14.9364 10.4079L16.812 12.3141L17.6819 11.4521L14.3433 8.05926L10.9505 11.3978L11.8064 12.2676L13.7125 10.3981L13.6845 13.8678C13.6721 15.3977 12.4384 16.6117 10.9085 16.5993L6.93087 16.5672L6.92099 17.7911Z"/>
</mask>
<path d="M6.92099 17.7911L10.8986 17.8232C13.0955 17.8409 14.8906 16.0746 14.9084 13.8777L14.9364 10.4079L16.812 12.3141L17.6819 11.4521L14.3433 8.05926L10.9505 11.3978L11.8064 12.2676L13.7125 10.3981L13.6845 13.8678C13.6721 15.3977 12.4384 16.6117 10.9085 16.5993L6.93087 16.5672L6.92099 17.7911Z" fill="white"/>
<path d="M6.92099 17.7911L6.88871 21.791L2.88884 21.7587L2.92112 17.7588L6.92099 17.7911ZM14.9364 10.4079L10.9365 10.3757L11.0144 0.719127L17.7875 7.60243L14.9364 10.4079ZM16.812 12.3141L19.6276 15.1553L16.7763 17.9809L13.9609 15.1196L16.812 12.3141ZM17.6819 11.4521L20.533 8.6466L23.3286 11.4877L20.4974 14.2933L17.6819 11.4521ZM14.3433 8.05926L11.5378 5.2081L14.389 2.40259L17.1945 5.25375L14.3433 8.05926ZM10.9505 11.3978L8.09932 14.2033L5.29381 11.3521L8.14497 8.54664L10.9505 11.3978ZM11.8064 12.2676L14.6072 15.1233L11.7562 17.9197L8.9552 15.0731L11.8064 12.2676ZM13.7125 10.3981L10.9116 7.54237L17.7901 0.795896L17.7123 10.4303L13.7125 10.3981ZM6.93087 16.5672L2.931 16.5349L2.96327 12.5351L6.96314 12.5674L6.93087 16.5672ZM6.95327 13.7912L10.9309 13.8233L10.8664 21.8231L6.88871 21.791L6.95327 13.7912ZM10.9309 13.8233C10.9347 13.8234 10.9342 13.8231 10.9307 13.8237C10.9276 13.8244 10.9241 13.8254 10.9211 13.8266C10.9155 13.829 10.9143 13.8306 10.9152 13.8298C10.916 13.8289 10.9144 13.8301 10.912 13.8356C10.9106 13.8387 10.9096 13.8421 10.9089 13.8452C10.9082 13.8486 10.9085 13.8491 10.9085 13.8454L18.9082 13.9099C18.8727 18.3159 15.2723 21.8586 10.8664 21.8231L10.9309 13.8233ZM10.9085 13.8454L10.9365 10.3757L18.9362 10.4402L18.9082 13.9099L10.9085 13.8454ZM17.7875 7.60243L19.6632 9.5086L13.9609 15.1196L12.0852 13.2135L17.7875 7.60243ZM13.9965 9.47289L14.8663 8.61089L20.4974 14.2933L19.6276 15.1553L13.9965 9.47289ZM14.8307 14.2576L11.4922 10.8648L17.1945 5.25375L20.533 8.6466L14.8307 14.2576ZM17.1488 10.9104L13.756 14.249L8.14497 8.54664L11.5378 5.2081L17.1488 10.9104ZM13.8016 8.59228L14.6575 9.46209L8.9552 15.0731L8.09932 14.2033L13.8016 8.59228ZM9.00547 9.4119L10.9116 7.54237L16.5134 13.2538L14.6072 15.1233L9.00547 9.4119ZM17.7123 10.4303L17.6843 13.9001L9.68461 13.8355L9.71261 10.3658L17.7123 10.4303ZM17.6843 13.9001C17.6542 17.639 14.6152 20.6294 10.8762 20.5992L10.9408 12.5995C10.2616 12.594 9.69009 13.1563 9.68461 13.8355L17.6843 13.9001ZM10.8762 20.5992L6.89859 20.5671L6.96314 12.5674L10.9408 12.5995L10.8762 20.5992ZM10.9307 16.5995L10.9209 17.8234L2.92112 17.7588L2.931 16.5349L10.9307 16.5995Z" fill="white" mask="url(#path-2-inside-1_136_528)"/>
</svg>
