<svg width="14" height="14" viewBox="0 0 14 14" fill="none" xmlns="http://www.w3.org/2000/svg">
<path d="M1.28841 6.47876L6.47876 1.28841C8.20399 -0.42947 10.9864 -0.42947 12.7116 1.28841C14.4295 3.00629 14.4295 5.79601 12.7116 7.52124L7.52124 12.7116C5.79601 14.4295 3.00629 14.4295 1.28841 12.7116C-0.42947 10.9864 -0.42947 8.20399 1.28841 6.47876ZM2.33089 7.52124C1.56004 8.28474 1.30309 9.3786 1.56738 10.355L5.96487 5.96487L9.07761 9.07761L11.6691 6.47876C12.8217 5.33351 12.8217 3.47614 11.6691 2.33089C10.5239 1.17829 8.66649 1.17829 7.52124 2.33089L2.33089 7.52124Z" fill="#4285F4"/>
</svg>
