<svg width="21" height="21" viewBox="0 0 21 21" fill="none" xmlns="http://www.w3.org/2000/svg">
    <g clip-path="url(#clip0_17_316)">
        <path d="M14.4375 7.875C14.4375 8.91929 14.0227 9.92081 13.2842 10.6592C12.5458 11.3977 11.5443 11.8125 10.5 11.8125C9.45571 11.8125 8.45419 11.3977 7.71577 10.6592C6.97734 9.92081 6.5625 8.91929 6.5625 7.875C6.5625 6.83071 6.97734 5.82919 7.71577 5.09077C8.45419 4.35234 9.45571 3.9375 10.5 3.9375C11.5443 3.9375 12.5458 4.35234 13.2842 5.09077C14.0227 5.82919 14.4375 6.83071 14.4375 7.875Z" fill="#2B447C"/>
        <path fill-rule="evenodd" clip-rule="evenodd" d="M0 10.5C0 7.71523 1.10625 5.04451 3.07538 3.07538C5.04451 1.10625 7.71523 0 10.5 0C13.2848 0 15.9555 1.10625 17.9246 3.07538C19.8938 5.04451 21 7.71523 21 10.5C21 13.2848 19.8938 15.9555 17.9246 17.9246C15.9555 19.8938 13.2848 21 10.5 21C7.71523 21 5.04451 19.8938 3.07538 17.9246C1.10625 15.9555 0 13.2848 0 10.5ZM10.5 1.3125C8.76983 1.31259 7.07486 1.80123 5.61015 2.72216C4.14545 3.6431 2.97056 4.9589 2.2207 6.51813C1.47085 8.07736 1.17651 9.81663 1.37156 11.5358C1.56661 13.2549 2.24313 14.884 3.32325 16.2356C4.25513 14.7341 6.30656 13.125 10.5 13.125C14.6934 13.125 16.7436 14.7328 17.6768 16.2356C18.7569 14.884 19.4334 13.2549 19.6284 11.5358C19.8235 9.81663 19.5292 8.07736 18.7793 6.51813C18.0294 4.9589 16.8545 3.6431 15.3898 2.72216C13.9251 1.80123 12.2302 1.31259 10.5 1.3125Z" fill="#2B447C"/>
    </g>
    <defs>
        <clipPath id="clip0_17_316">
            <rect width="21" height="21" fill="white"/>
        </clipPath>
    </defs>
</svg>
