<svg width="21" height="21" viewBox="0 0 21 21" fill="none" xmlns="http://www.w3.org/2000/svg">
    <path d="M15.412 13.5755C16.6828 11.8411 17.252 9.69071 17.0057 7.55461C16.7594 5.4185 15.7157 3.45418 14.0835 2.05464C12.4512 0.655095 10.3508 -0.0764598 8.20247 0.00633226C6.0541 0.0891243 4.01621 0.980157 2.4965 2.50117C0.976791 4.02218 0.0873414 6.06099 0.00609835 8.20972C-0.0751447 10.3585 0.65781 12.4586 2.05832 14.0901C3.45884 15.7215 5.42363 16.764 7.55961 17.0088C9.69559 17.2536 11.8452 16.6828 13.5785 15.4105H13.5772C13.6165 15.463 13.6585 15.5129 13.7058 15.5615L18.7587 20.6151C19.0048 20.8614 19.3387 20.9999 19.6868 21C20.035 21.0001 20.3689 20.8619 20.6152 20.6158C20.8615 20.3697 20.9999 20.0358 21 19.6876C21.0001 19.3394 20.8619 19.0054 20.6158 18.7591L15.5629 13.7054C15.516 13.6579 15.4655 13.6153 15.412 13.5755ZM15.7506 8.5297C15.7506 9.47778 15.5639 10.4166 15.2011 11.2925C14.8384 12.1684 14.3066 12.9643 13.6363 13.6347C12.966 14.305 12.1703 14.8368 11.2945 15.1996C10.4187 15.5625 9.48005 15.7492 8.53211 15.7492C7.58416 15.7492 6.6455 15.5625 5.76972 15.1996C4.89393 14.8368 4.09817 14.305 3.42787 13.6347C2.75757 12.9643 2.22587 12.1684 1.8631 11.2925C1.50034 10.4166 1.31363 9.47778 1.31363 8.5297C1.31363 6.61497 2.07415 4.77866 3.42787 3.42474C4.7816 2.07083 6.61765 1.3102 8.53211 1.3102C10.4466 1.3102 12.2826 2.07083 13.6363 3.42474C14.9901 4.77866 15.7506 6.61497 15.7506 8.5297Z" fill="#2B447C"/>
</svg>
