<svg width="57" height="9" viewBox="0 0 57 9" fill="none" xmlns="http://www.w3.org/2000/svg">
<path d="M4.5 0L6.02963 2.60796L9 3.24671L6.975 5.49727L7.28115 8.5L4.5 7.28296L1.71885 8.5L2.025 5.49727L0 3.24671L2.97037 2.60796L4.5 0Z" fill="#FFCB45"/>
<path d="M16.5 0L18.0296 2.60796L21 3.24671L18.975 5.49727L19.2812 8.5L16.5 7.28296L13.7188 8.5L14.025 5.49727L12 3.24671L14.9704 2.60796L16.5 0Z" fill="#FFCB45"/>
<path d="M28.5 0L30.0296 2.60796L33 3.24671L30.975 5.49727L31.2812 8.5L28.5 7.28296L25.7188 8.5L26.025 5.49727L24 3.24671L26.9704 2.60796L28.5 0Z" fill="#FFCB45"/>
<path d="M40.5 0L42.0296 2.60796L45 3.24671L42.975 5.49727L43.2812 8.5L40.5 7.28296L37.7188 8.5L38.025 5.49727L36 3.24671L38.9704 2.60796L40.5 0Z" fill="#FFCB45"/>
<path d="M52.5 0L54.0296 2.60796L57 3.24671L54.975 5.49727L55.2812 8.5L52.5 7.28296L49.7188 8.5L50.025 5.49727L48 3.24671L50.9704 2.60796L52.5 0Z" fill="#F2F2F2"/>
</svg>
